<?xml version="1.0" standalone="no"?>
<!DOCTYPE svg PUBLIC "-//W3C//DTD SVG 20010904//EN"
 "http://www.w3.org/TR/2001/REC-SVG-20010904/DTD/svg10.dtd">
<svg version="1.0" xmlns="http://www.w3.org/2000/svg"
 width="192.000000pt" height="192.000000pt" viewBox="0 0 192.000000 192.000000"
 preserveAspectRatio="xMidYMid meet">
<metadata>
Created by potrace 1.11, written by Peter Selinger 2001-2013
</metadata>
<g transform="translate(0.000000,192.000000) scale(0.100000,-0.100000)"
fill="#000000" stroke="none">
<path d="M0 1823 l1 -98 19 42 c11 23 25 45 30 48 6 3 10 15 10 26 0 10 4 19
9 19 5 0 14 14 20 30 l10 30 -50 0 -49 0 0 -97z"/>
<path d="M807 1869 c-27 -16 -52 -27 -56 -24 -5 2 -17 -5 -27 -16 -24 -26 -72
-52 -83 -44 -5 3 -16 -2 -24 -10 -9 -8 -21 -15 -27 -15 -7 0 -25 -11 -42 -25
-16 -14 -26 -25 -22 -25 3 0 -11 -19 -33 -43 -59 -63 -78 -144 -70 -288 5 -88
4 -114 -7 -125 -8 -8 -17 -43 -21 -78 -7 -58 -4 -69 24 -130 20 -42 46 -77 71
-98 34 -26 40 -37 40 -69 0 -32 -11 -51 -67 -120 -38 -46 -118 -137 -179 -204
-99 -108 -166 -188 -202 -241 -7 -11 -4 -1 7 21 10 22 35 60 54 85 20 24 33
48 30 53 -3 5 -10 4 -16 -2 -13 -13 -30 -15 -23 -2 4 5 3 11 -2 13 -13 5 -52
78 -52 97 0 10 -9 21 -20 24 -11 3 -20 12 -20 21 0 9 -4 16 -10 16 -5 0 -10
14 -10 30 0 17 -4 30 -10 30 -6 0 -10 -123 -10 -350 l0 -350 693 0 693 0 12
68 c6 37 13 76 14 86 3 17 -7 22 -62 32 -183 36 -170 31 -170 75 0 33 -6 45
-44 80 -48 44 -49 48 -10 111 18 28 31 38 61 43 53 8 155 67 170 96 22 45 82
254 88 309 3 30 11 81 17 113 9 47 8 72 -7 138 -13 60 -15 100 -10 159 7 77 6
80 -35 172 -74 164 -81 198 -39 198 20 0 26 15 9 25 -5 3 -1 14 10 25 25 25
25 40 0 40 -30 0 -24 19 8 26 45 10 52 13 52 25 0 7 -17 9 -52 5 -62 -6 -521
50 -526 64 -5 14 -11 12 -65 -21z m136 -140 c12 -6 30 -19 40 -27 10 -9 40
-17 70 -18 110 -6 230 -27 247 -44 14 -14 47 -102 84 -226 5 -18 -4 -27 -59
-59 -44 -26 -65 -45 -65 -57 0 -12 -4 -16 -11 -12 -9 5 -10 -2 -6 -22 4 -16
11 -51 17 -79 6 -27 20 -63 32 -79 12 -16 21 -35 21 -42 0 -7 4 -11 8 -8 20
12 19 -20 -1 -41 -19 -20 -26 -22 -43 -13 -26 14 -105 3 -129 -19 -10 -9 -18
-12 -18 -8 0 4 -8 1 -17 -7 -30 -25 -47 -33 -38 -17 4 8 -9 -2 -31 -21 -21
-19 -31 -26 -21 -14 37 44 14 45 -30 1 -26 -26 -53 -45 -60 -43 -7 3 -13 -2
-13 -10 0 -9 9 -18 20 -21 12 -3 19 -13 17 -25 -1 -11 6 -25 16 -32 15 -9 21
-8 31 6 7 10 17 14 22 10 4 -4 2 1 -5 11 -18 23 0 22 32 -3 15 -12 49 -24 77
-27 51 -6 58 -11 40 -29 -7 -7 -8 -19 -1 -38 6 -15 7 -42 3 -63 -7 -33 -11
-38 -40 -39 -17 -1 -29 2 -26 7 3 5 1 9 -5 9 -5 0 -13 -5 -16 -10 -4 -6 -12
-4 -21 5 -9 8 -20 13 -25 9 -5 -3 -21 4 -35 15 -15 12 -33 21 -40 21 -7 0 -16
9 -19 20 -4 11 -11 18 -16 15 -5 -4 -9 0 -9 9 0 8 -5 16 -11 18 -7 2 -12 18
-13 35 -1 22 -5 29 -15 25 -11 -4 -13 1 -8 24 3 16 4 23 1 17 -8 -18 -24 -16
-24 2 0 8 -4 15 -9 15 -19 0 -21 37 -10 126 11 87 11 96 -9 152 -12 32 -22 75
-22 96 0 20 -4 36 -9 36 -5 0 -11 8 -13 18 -3 13 12 23 63 44 l67 27 81 -16
c69 -14 85 -14 106 -3 45 24 29 37 -62 54 -49 9 -95 16 -104 16 -23 0 -40 73
-47 196 -6 131 7 160 61 133z m463 -419 c0 -27 -1 -28 -16 -15 -9 8 -29 15
-45 15 -44 0 -12 17 56 29 3 1 5 -12 5 -29z m-24 -41 c21 -11 21 -12 -3 -25
-34 -19 -37 -17 -31 11 5 29 6 29 34 14z m-886 -50 c19 -11 35 -25 36 -30 0
-5 1 -15 2 -21 1 -7 4 -15 8 -18 3 -3 9 -19 13 -35 l7 -30 -14 25 c-8 14 -22
37 -31 51 -9 14 -14 29 -10 34 5 4 3 5 -3 2 -7 -4 -17 0 -24 8 -7 8 -20 15
-28 15 -12 0 -13 -3 -5 -11 8 -8 7 -18 -3 -37 -8 -15 -14 -38 -15 -52 0 -23
-1 -23 -8 -5 -12 29 0 98 18 112 21 16 18 16 57 -8z m814 -44 c0 6 24 10 54
11 l54 0 12 -57 c11 -51 10 -75 -10 -191 -23 -135 -39 -185 -66 -195 -14 -5
-51 -108 -45 -128 1 -5 -3 -4 -10 3 -10 9 -10 15 -1 24 7 7 12 16 12 22 0 5
-11 -4 -25 -20 -25 -28 -25 -28 -17 -4 7 18 5 31 -5 47 -16 24 -10 37 32 61
l20 11 -20 1 c-16 0 -17 2 -5 10 8 5 11 12 7 16 -3 4 13 19 38 35 39 25 79 71
58 68 -21 -4 -33 2 -33 16 0 9 -6 12 -17 8 -10 -3 -15 -3 -11 1 4 5 -2 18 -13
29 -18 20 -18 22 -2 30 52 27 54 62 8 123 -20 26 -35 57 -35 72 0 21 2 24 10
12 5 -8 10 -10 10 -5z m-839 -92 l-8 -28 -5 28 c-3 16 -3 38 0 50 l5 21 8 -21
c4 -12 4 -34 0 -50z m105 -41 c-3 -3 -1 -11 6 -19 6 -7 8 -16 5 -19 -3 -3 -13
8 -21 25 -15 27 -15 30 -1 24 9 -3 13 -8 11 -11z m-66 -61 c26 -24 49 -37 60
-34 10 3 20 -2 24 -13 5 -14 4 -15 -8 -5 -8 7 -19 10 -24 7 -10 -6 -82 47 -95
70 -13 23 -2 17 43 -25z m777 -77 c-3 -3 -36 -7 -74 -9 -37 -1 -94 -12 -127
-25 -43 -15 -65 -19 -80 -12 -17 8 -14 9 21 10 23 0 59 10 80 20 27 15 59 20
111 20 41 1 72 -2 69 -4z m90 -30 c-3 -3 -12 -4 -19 -1 -8 3 -5 6 6 6 11 1 17
-2 13 -5z m-717 -116 c0 -4 6 -8 13 -8 8 0 22 -10 33 -22 l19 -22 -30 19 c-21
13 -26 14 -18 3 7 -8 9 -18 5 -22 -4 -4 -1 -6 6 -4 8 2 21 -8 30 -22 14 -20
14 -23 2 -16 -8 4 -6 0 4 -8 11 -9 16 -16 10 -16 -5 0 5 -9 21 -20 25 -17 27
-20 10 -20 -19 -1 -19 -1 -2 -11 10 -6 21 -8 24 -6 3 3 15 -3 26 -14 12 -11
41 -31 64 -45 73 -43 169 -120 165 -132 -2 -7 -12 -12 -23 -12 -11 0 -19 -7
-19 -16 0 -12 7 -15 25 -12 24 5 25 3 25 -39 0 -42 -1 -43 -22 -32 -36 18 -78
61 -71 72 3 6 1 7 -6 3 -15 -10 -43 13 -34 27 4 6 1 7 -7 2 -17 -11 -254 231
-246 252 3 8 2 11 -3 8 -15 -9 -42 36 -31 50 5 7 6 15 2 20 -4 4 3 2 16 -4 27
-14 27 -14 2 46 -13 32 -15 41 -5 29 8 -11 15 -23 15 -28z m-510 -317 c0 -5
-7 -12 -16 -15 -14 -5 -15 -4 -4 9 14 17 20 19 20 6z"/>
<path d="M873 1305 c-22 -9 -33 -21 -33 -35 0 -17 4 -20 20 -15 22 7 28 -13 9
-32 -13 -13 36 -32 96 -36 22 -1 45 -6 51 -9 14 -9 54 19 54 38 0 8 -5 14 -11
14 -5 0 -7 5 -3 12 4 6 3 8 -4 4 -6 -3 -31 -8 -56 -10 -40 -3 -44 -1 -36 14 5
10 6 20 3 24 -13 12 14 6 33 -9 27 -20 37 -18 24 5 -6 11 -8 20 -4 20 3 0 1 7
-6 15 -16 19 -94 19 -137 0z"/>
<path d="M1108 1281 c4 -10 1 -12 -7 -7 -18 12 -10 -46 9 -60 21 -17 14 -114
-8 -122 -7 -2 -10 -8 -6 -13 3 -5 -2 -9 -11 -9 -9 0 -13 -5 -10 -11 4 -6 -1
-16 -10 -23 -27 -19 -14 -38 29 -42 33 -3 36 -1 25 12 -11 13 -9 19 11 34 14
10 27 18 30 18 3 -1 20 5 39 12 31 12 33 15 28 47 -5 28 -34 100 -66 163 -11
20 -61 21 -53 1z"/>
<path d="M1140 1035 c-11 -13 -10 -14 4 -9 9 3 16 10 16 15 0 13 -6 11 -20 -6z"/>
<path d="M1370 995 c0 -8 5 -15 10 -15 6 0 10 7 10 15 0 8 -4 15 -10 15 -5 0
-10 -7 -10 -15z"/>
<path d="M643 685 c0 -8 4 -12 9 -9 5 3 6 10 3 15 -9 13 -12 11 -12 -6z"/>
<path d="M2 740 c0 -14 2 -19 5 -12 2 6 2 18 0 25 -3 6 -5 1 -5 -13z"/>
<path d="M206 508 c3 -5 10 -6 15 -3 13 9 11 12 -6 12 -8 0 -12 -4 -9 -9z"/>
<path d="M1872 30 l-32 -30 40 0 c38 0 40 2 40 30 0 37 -7 37 -48 0z"/>
</g>
</svg>
